<mxfile host="Electron" modified="2024-03-16T22:14:21.162Z" agent="Mozilla/5.0 (Windows NT 10.0; Win64; x64) AppleWebKit/537.36 (KHTML, like Gecko) draw.io/22.0.3 Chrome/114.0.5735.289 Electron/25.8.4 Safari/537.36" etag="pz1jTIi_iF0NdbySHgz-" version="22.0.3" type="device">
  <diagram name="Page-1" id="e7e014a7-5840-1c2e-5031-d8a46d1fe8dd">
    <mxGraphModel dx="2220" dy="1756" grid="1" gridSize="10" guides="1" tooltips="1" connect="1" arrows="1" fold="1" page="1" pageScale="1" pageWidth="1169" pageHeight="826" background="none" math="0" shadow="0">
      <root>
        <mxCell id="0" />
        <mxCell id="1" parent="0" />
        <mxCell id="jr9HWdVjy28tNCB8ZcPW-42" value="" style="rounded=0;whiteSpace=wrap;html=1;" vertex="1" parent="1">
          <mxGeometry x="260" y="-80" width="630" height="940" as="geometry" />
        </mxCell>
        <mxCell id="jr9HWdVjy28tNCB8ZcPW-43" value="Client" style="shape=umlActor;verticalLabelPosition=bottom;verticalAlign=top;html=1;outlineConnect=0;" vertex="1" parent="1">
          <mxGeometry x="100" y="380" width="70" height="110" as="geometry" />
        </mxCell>
        <mxCell id="jr9HWdVjy28tNCB8ZcPW-44" value="Doctor" style="shape=umlActor;verticalLabelPosition=bottom;verticalAlign=top;html=1;outlineConnect=0;" vertex="1" parent="1">
          <mxGeometry x="1030" y="70" width="70" height="110" as="geometry" />
        </mxCell>
        <mxCell id="jr9HWdVjy28tNCB8ZcPW-55" value="Login" style="ellipse;whiteSpace=wrap;html=1;" vertex="1" parent="1">
          <mxGeometry x="435" y="100" width="150" height="80" as="geometry" />
        </mxCell>
        <mxCell id="jr9HWdVjy28tNCB8ZcPW-56" value="Logout" style="ellipse;whiteSpace=wrap;html=1;" vertex="1" parent="1">
          <mxGeometry x="435" y="200" width="150" height="80" as="geometry" />
        </mxCell>
        <mxCell id="jr9HWdVjy28tNCB8ZcPW-57" value="Register" style="ellipse;whiteSpace=wrap;html=1;" vertex="1" parent="1">
          <mxGeometry x="435" width="150" height="80" as="geometry" />
        </mxCell>
        <mxCell id="jr9HWdVjy28tNCB8ZcPW-58" value="&lt;p class=&quot;MsoNormal&quot;&gt;Purchasing&lt;/p&gt;&lt;p class=&quot;MsoNormal&quot;&gt;Servicers&amp;nbsp;&lt;/p&gt;" style="ellipse;whiteSpace=wrap;html=1;" vertex="1" parent="1">
          <mxGeometry x="420" y="390" width="155" height="78" as="geometry" />
        </mxCell>
        <mxCell id="jr9HWdVjy28tNCB8ZcPW-59" value="Making test requests" style="ellipse;whiteSpace=wrap;html=1;" vertex="1" parent="1">
          <mxGeometry x="432.5" y="290" width="150" height="80" as="geometry" />
        </mxCell>
        <mxCell id="jr9HWdVjy28tNCB8ZcPW-60" value="&lt;p class=&quot;MsoNormal&quot;&gt;Accsessing Lab report&lt;/p&gt;" style="ellipse;whiteSpace=wrap;html=1;" vertex="1" parent="1">
          <mxGeometry x="427.5" y="570" width="155" height="78" as="geometry" />
        </mxCell>
        <mxCell id="jr9HWdVjy28tNCB8ZcPW-61" value="&lt;p class=&quot;MsoNormal&quot;&gt;Manage requests&lt;/p&gt;" style="ellipse;whiteSpace=wrap;html=1;" vertex="1" parent="1">
          <mxGeometry x="420" y="660" width="155" height="78" as="geometry" />
        </mxCell>
        <mxCell id="jr9HWdVjy28tNCB8ZcPW-62" value="&lt;p class=&quot;MsoNormal&quot;&gt;Manage Services&lt;/p&gt;" style="ellipse;whiteSpace=wrap;html=1;" vertex="1" parent="1">
          <mxGeometry x="420" y="770" width="155" height="78" as="geometry" />
        </mxCell>
        <mxCell id="jr9HWdVjy28tNCB8ZcPW-63" value="Admin" style="shape=umlActor;verticalLabelPosition=bottom;verticalAlign=top;html=1;outlineConnect=0;" vertex="1" parent="1">
          <mxGeometry x="970" y="560" width="70" height="110" as="geometry" />
        </mxCell>
        <mxCell id="jr9HWdVjy28tNCB8ZcPW-65" value="Loging details" style="ellipse;whiteSpace=wrap;html=1;" vertex="1" parent="1">
          <mxGeometry x="720" y="-80" width="150" height="80" as="geometry" />
        </mxCell>
        <mxCell id="jr9HWdVjy28tNCB8ZcPW-68" value="" style="endArrow=none;html=1;rounded=0;exitX=0.5;exitY=0.5;exitDx=0;exitDy=0;exitPerimeter=0;" edge="1" parent="1" source="jr9HWdVjy28tNCB8ZcPW-43">
          <mxGeometry width="50" height="50" relative="1" as="geometry">
            <mxPoint x="390" y="170" as="sourcePoint" />
            <mxPoint x="440" y="120" as="targetPoint" />
          </mxGeometry>
        </mxCell>
        <mxCell id="jr9HWdVjy28tNCB8ZcPW-69" value="" style="endArrow=none;html=1;rounded=0;exitX=0.571;exitY=0.545;exitDx=0;exitDy=0;exitPerimeter=0;entryX=0;entryY=0.5;entryDx=0;entryDy=0;" edge="1" parent="1" source="jr9HWdVjy28tNCB8ZcPW-43" target="jr9HWdVjy28tNCB8ZcPW-55">
          <mxGeometry width="50" height="50" relative="1" as="geometry">
            <mxPoint x="145" y="445" as="sourcePoint" />
            <mxPoint x="450" y="130" as="targetPoint" />
          </mxGeometry>
        </mxCell>
        <mxCell id="jr9HWdVjy28tNCB8ZcPW-70" value="" style="endArrow=none;html=1;rounded=0;exitX=0.5;exitY=0.5;exitDx=0;exitDy=0;exitPerimeter=0;entryX=0;entryY=0.5;entryDx=0;entryDy=0;" edge="1" parent="1" source="jr9HWdVjy28tNCB8ZcPW-43" target="jr9HWdVjy28tNCB8ZcPW-56">
          <mxGeometry width="50" height="50" relative="1" as="geometry">
            <mxPoint x="150" y="450" as="sourcePoint" />
            <mxPoint x="445" y="220" as="targetPoint" />
          </mxGeometry>
        </mxCell>
        <mxCell id="jr9HWdVjy28tNCB8ZcPW-71" value="" style="endArrow=none;html=1;rounded=0;entryX=0;entryY=0.5;entryDx=0;entryDy=0;" edge="1" parent="1" target="jr9HWdVjy28tNCB8ZcPW-59">
          <mxGeometry width="50" height="50" relative="1" as="geometry">
            <mxPoint x="140" y="430" as="sourcePoint" />
            <mxPoint x="445" y="320" as="targetPoint" />
          </mxGeometry>
        </mxCell>
        <mxCell id="jr9HWdVjy28tNCB8ZcPW-72" value="" style="endArrow=none;html=1;rounded=0;entryX=0;entryY=0.5;entryDx=0;entryDy=0;" edge="1" parent="1" target="jr9HWdVjy28tNCB8ZcPW-58">
          <mxGeometry width="50" height="50" relative="1" as="geometry">
            <mxPoint x="140" y="440" as="sourcePoint" />
            <mxPoint x="443" y="410" as="targetPoint" />
          </mxGeometry>
        </mxCell>
        <mxCell id="jr9HWdVjy28tNCB8ZcPW-73" value="" style="endArrow=none;html=1;rounded=0;entryX=0;entryY=0.5;entryDx=0;entryDy=0;" edge="1" parent="1" target="jr9HWdVjy28tNCB8ZcPW-60">
          <mxGeometry width="50" height="50" relative="1" as="geometry">
            <mxPoint x="140" y="440" as="sourcePoint" />
            <mxPoint x="430" y="509" as="targetPoint" />
          </mxGeometry>
        </mxCell>
        <mxCell id="jr9HWdVjy28tNCB8ZcPW-75" value="" style="endArrow=none;html=1;rounded=0;exitX=1;exitY=0.5;exitDx=0;exitDy=0;entryX=0.5;entryY=0.5;entryDx=0;entryDy=0;entryPerimeter=0;" edge="1" parent="1" source="jr9HWdVjy28tNCB8ZcPW-55" target="jr9HWdVjy28tNCB8ZcPW-44">
          <mxGeometry width="50" height="50" relative="1" as="geometry">
            <mxPoint x="950" y="250" as="sourcePoint" />
            <mxPoint x="1000" y="200" as="targetPoint" />
          </mxGeometry>
        </mxCell>
        <mxCell id="jr9HWdVjy28tNCB8ZcPW-77" value="" style="endArrow=none;html=1;rounded=0;exitX=1;exitY=0.5;exitDx=0;exitDy=0;" edge="1" parent="1" source="jr9HWdVjy28tNCB8ZcPW-56">
          <mxGeometry width="50" height="50" relative="1" as="geometry">
            <mxPoint x="595" y="220" as="sourcePoint" />
            <mxPoint x="1060" y="130" as="targetPoint" />
          </mxGeometry>
        </mxCell>
        <mxCell id="jr9HWdVjy28tNCB8ZcPW-78" value="" style="endArrow=none;html=1;rounded=0;exitX=1;exitY=0.5;exitDx=0;exitDy=0;" edge="1" parent="1" source="jr9HWdVjy28tNCB8ZcPW-61">
          <mxGeometry width="50" height="50" relative="1" as="geometry">
            <mxPoint x="595" y="320" as="sourcePoint" />
            <mxPoint x="1070" y="140" as="targetPoint" />
          </mxGeometry>
        </mxCell>
        <mxCell id="jr9HWdVjy28tNCB8ZcPW-79" value="&lt;p class=&quot;MsoNormal&quot;&gt;managing&lt;/p&gt;&lt;p class=&quot;MsoNormal&quot;&gt;test requests&lt;/p&gt;" style="ellipse;whiteSpace=wrap;html=1;" vertex="1" parent="1">
          <mxGeometry x="427.5" y="482" width="155" height="78" as="geometry" />
        </mxCell>
        <mxCell id="jr9HWdVjy28tNCB8ZcPW-80" value="" style="endArrow=none;html=1;rounded=0;exitX=1;exitY=0.5;exitDx=0;exitDy=0;" edge="1" parent="1" source="jr9HWdVjy28tNCB8ZcPW-79">
          <mxGeometry width="50" height="50" relative="1" as="geometry">
            <mxPoint x="585" y="709" as="sourcePoint" />
            <mxPoint x="1065" y="130" as="targetPoint" />
          </mxGeometry>
        </mxCell>
        <mxCell id="jr9HWdVjy28tNCB8ZcPW-81" value="" style="endArrow=none;html=1;rounded=0;exitX=1;exitY=0.5;exitDx=0;exitDy=0;entryX=0.5;entryY=0.5;entryDx=0;entryDy=0;entryPerimeter=0;" edge="1" parent="1" source="jr9HWdVjy28tNCB8ZcPW-79" target="jr9HWdVjy28tNCB8ZcPW-63">
          <mxGeometry width="50" height="50" relative="1" as="geometry">
            <mxPoint x="592" y="531" as="sourcePoint" />
            <mxPoint x="1075" y="140" as="targetPoint" />
          </mxGeometry>
        </mxCell>
        <mxCell id="jr9HWdVjy28tNCB8ZcPW-82" value="" style="endArrow=none;html=1;rounded=0;exitX=1;exitY=0.5;exitDx=0;exitDy=0;entryX=0.5;entryY=0.5;entryDx=0;entryDy=0;entryPerimeter=0;" edge="1" parent="1" source="jr9HWdVjy28tNCB8ZcPW-60" target="jr9HWdVjy28tNCB8ZcPW-44">
          <mxGeometry width="50" height="50" relative="1" as="geometry">
            <mxPoint x="585" y="709" as="sourcePoint" />
            <mxPoint x="1080" y="150" as="targetPoint" />
          </mxGeometry>
        </mxCell>
        <mxCell id="jr9HWdVjy28tNCB8ZcPW-83" value="" style="endArrow=none;html=1;rounded=0;exitX=1;exitY=0.5;exitDx=0;exitDy=0;" edge="1" parent="1" source="jr9HWdVjy28tNCB8ZcPW-55">
          <mxGeometry width="50" height="50" relative="1" as="geometry">
            <mxPoint x="592" y="531" as="sourcePoint" />
            <mxPoint x="1010" y="620" as="targetPoint" />
          </mxGeometry>
        </mxCell>
        <mxCell id="jr9HWdVjy28tNCB8ZcPW-84" value="" style="endArrow=none;html=1;rounded=0;exitX=1;exitY=0.5;exitDx=0;exitDy=0;" edge="1" parent="1" source="jr9HWdVjy28tNCB8ZcPW-56">
          <mxGeometry width="50" height="50" relative="1" as="geometry">
            <mxPoint x="595" y="150" as="sourcePoint" />
            <mxPoint x="1005" y="620" as="targetPoint" />
          </mxGeometry>
        </mxCell>
        <mxCell id="jr9HWdVjy28tNCB8ZcPW-85" value="" style="endArrow=none;html=1;rounded=0;exitX=1;exitY=0.5;exitDx=0;exitDy=0;" edge="1" parent="1" source="jr9HWdVjy28tNCB8ZcPW-60">
          <mxGeometry width="50" height="50" relative="1" as="geometry">
            <mxPoint x="592" y="531" as="sourcePoint" />
            <mxPoint x="1000" y="620" as="targetPoint" />
          </mxGeometry>
        </mxCell>
        <mxCell id="jr9HWdVjy28tNCB8ZcPW-86" value="" style="endArrow=none;html=1;rounded=0;exitX=1;exitY=0.5;exitDx=0;exitDy=0;" edge="1" parent="1" source="jr9HWdVjy28tNCB8ZcPW-61">
          <mxGeometry width="50" height="50" relative="1" as="geometry">
            <mxPoint x="592" y="619" as="sourcePoint" />
            <mxPoint x="1010" y="630" as="targetPoint" />
          </mxGeometry>
        </mxCell>
        <mxCell id="jr9HWdVjy28tNCB8ZcPW-87" value="" style="endArrow=none;html=1;rounded=0;exitX=1;exitY=0.5;exitDx=0;exitDy=0;" edge="1" parent="1" source="jr9HWdVjy28tNCB8ZcPW-62">
          <mxGeometry width="50" height="50" relative="1" as="geometry">
            <mxPoint x="585" y="709" as="sourcePoint" />
            <mxPoint x="1005" y="630" as="targetPoint" />
          </mxGeometry>
        </mxCell>
        <mxCell id="jr9HWdVjy28tNCB8ZcPW-88" value="" style="endArrow=none;dashed=1;html=1;rounded=0;" edge="1" parent="1" source="jr9HWdVjy28tNCB8ZcPW-55">
          <mxGeometry width="50" height="50" relative="1" as="geometry">
            <mxPoint x="670" y="20" as="sourcePoint" />
            <mxPoint x="720" y="-30" as="targetPoint" />
          </mxGeometry>
        </mxCell>
        <mxCell id="jr9HWdVjy28tNCB8ZcPW-89" value="&amp;lt;include&amp;gt;" style="edgeLabel;html=1;align=center;verticalAlign=middle;resizable=0;points=[];" vertex="1" connectable="0" parent="jr9HWdVjy28tNCB8ZcPW-88">
          <mxGeometry x="0.1888" y="-2" relative="1" as="geometry">
            <mxPoint as="offset" />
          </mxGeometry>
        </mxCell>
        <mxCell id="jr9HWdVjy28tNCB8ZcPW-90" value="" style="endArrow=none;dashed=1;html=1;rounded=0;exitX=1;exitY=0.5;exitDx=0;exitDy=0;" edge="1" parent="1" source="jr9HWdVjy28tNCB8ZcPW-59">
          <mxGeometry width="50" height="50" relative="1" as="geometry">
            <mxPoint x="561" y="117" as="sourcePoint" />
            <mxPoint x="720" y="-30" as="targetPoint" />
          </mxGeometry>
        </mxCell>
        <mxCell id="jr9HWdVjy28tNCB8ZcPW-91" value="&amp;lt;include&amp;gt;" style="edgeLabel;html=1;align=center;verticalAlign=middle;resizable=0;points=[];" vertex="1" connectable="0" parent="jr9HWdVjy28tNCB8ZcPW-90">
          <mxGeometry x="0.1888" y="-2" relative="1" as="geometry">
            <mxPoint as="offset" />
          </mxGeometry>
        </mxCell>
      </root>
    </mxGraphModel>
  </diagram>
</mxfile>
